<?xml version="1.0" encoding="utf-8"?>
<!-- Generator: Adobe Illustrator 24.1.3, SVG Export Plug-In . SVG Version: 6.00 Build 0)  -->
<svg version="1.1" id="Camada_1" xmlns="http://www.w3.org/2000/svg" xmlns:xlink="http://www.w3.org/1999/xlink" x="0px" y="0px"
	 viewBox="0 0 1080 1080" style="enable-background:new 0 0 1080 1080;" xml:space="preserve">
<style type="text/css">
	.st0{fill:#0F3547;}
	.st1{fill:#ECF4E9;}
</style>
<g>
	<g>
		<g>
			<g>
				<path class="st0" d="M744.86,334.38c0-7.12-5.77-12.89-12.89-12.89H239.02c-7.12,0-12.89,5.77-12.89,12.89
					s5.77,12.89,12.89,12.89h492.94C739.09,347.28,744.86,341.5,744.86,334.38z"/>
				<path class="st0" d="M624.65,452.21c0-7.12-5.77-12.89-12.89-12.89H239.02c-7.12,0-12.89,5.77-12.89,12.89
					s5.77,12.89,12.89,12.89h372.73C618.88,465.11,624.65,459.33,624.65,452.21z"/>
				<path class="st0" d="M239.02,557.15c-7.12,0-12.89,5.77-12.89,12.89c0,7.12,5.77,12.89,12.89,12.89h274.31
					c7.12,0,12.89-5.77,12.89-12.89c0-7.12-5.77-12.89-12.89-12.89H239.02z"/>
				<path class="st0" d="M965.15,266.76l-17.46-17.46c-17.59-17.59-46.22-17.59-63.81,0c-21.23,21.23-229.91,229.92-281.22,281.22
					c0,0-0.01,0.01-0.01,0.01c-0.01,0.01-0.01,0.01-0.02,0.02c-9.93,9.93-17.81,21.5-23.41,34.39l-25.62,58.95
					c-10.16,23.36,13.6,47.11,36.96,36.96l58.95-25.63c12.89-5.6,24.47-13.48,34.41-23.42c50.66-50.66,260.12-260.12,281.23-281.23
					C982.78,312.94,982.78,284.4,965.15,266.76L965.15,266.76z M639.23,611.58l-58.95,25.63c-1.94,0.84-3.88-1.08-3.03-3.03
					l25.62-58.95c2.58-5.93,5.79-11.48,9.59-16.64l43.41,43.41C650.71,605.78,645.15,609,639.23,611.58L639.23,611.58z
					 M674.8,584.45l-44.8-44.8l190.53-190.54l44.8,44.8L674.8,584.45z M883.57,375.68l-44.8-44.8l18.8-18.8l44.8,44.8L883.57,375.68
					z M946.91,312.34l-26.3,26.31l-44.8-44.8l26.31-26.31c7.54-7.54,19.8-7.54,27.34,0L946.91,285
					C954.47,292.55,954.47,304.78,946.91,312.34z"/>
				<path class="st0" d="M848.44,223.45c-8.96-9.17-21.48-21.84-41.94-29.56c-11.46-4.33-23.74-6.62-36.3-6.62H200.78
					c-56.61,0-102.67,46.06-102.67,102.67v350.45c0,56.61,46.06,102.67,102.67,102.67h7.98l-22.03,122.31
					c-1.74,9.64,2.89,19.25,11.51,23.9c8.73,4.71,19.28,3.16,26.3-3.5L370.2,747.51c3.02-2.87,6.98-4.45,11.15-4.45h388.85
					c56.61,0,102.67-46.06,102.67-102.67C872.59,511.93,872.29,383.46,872,255C863.94,240.63,855.11,230.28,848.44,223.45z"/>
			</g>
		</g>
		<polygon class="st0" points="902,246 817,334 845,439 973,300 909,246 		"/>
	</g>
	<g>
		<g>
			<path class="st1" d="M744.86,334.38c0-7.12-5.77-12.89-12.89-12.89H239.02c-7.12,0-12.89,5.77-12.89,12.89
				s5.77,12.89,12.89,12.89h492.94C739.09,347.28,744.86,341.5,744.86,334.38z"/>
			<path class="st1" d="M624.65,452.21c0-7.12-5.77-12.89-12.89-12.89H239.02c-7.12,0-12.89,5.77-12.89,12.89
				s5.77,12.89,12.89,12.89h372.73C618.88,465.11,624.65,459.33,624.65,452.21z"/>
			<path class="st1" d="M239.02,557.15c-7.12,0-12.89,5.77-12.89,12.89c0,7.12,5.77,12.89,12.89,12.89h274.31
				c7.12,0,12.89-5.77,12.89-12.89c0-7.12-5.77-12.89-12.89-12.89H239.02z"/>
			<path class="st1" d="M965.15,266.76l-17.46-17.46c-17.59-17.59-46.22-17.59-63.81,0c-21.23,21.23-229.91,229.92-281.22,281.22
				c0,0-0.01,0.01-0.01,0.01c-0.01,0.01-0.01,0.01-0.02,0.02c-9.93,9.93-17.81,21.5-23.41,34.39l-25.62,58.95
				c-10.16,23.36,13.6,47.11,36.96,36.96l58.95-25.63c12.89-5.6,24.47-13.48,34.41-23.42c50.66-50.66,260.12-260.12,281.23-281.23
				C982.78,312.94,982.78,284.4,965.15,266.76L965.15,266.76z M639.23,611.58l-58.95,25.63c-1.94,0.84-3.88-1.08-3.03-3.03
				l25.62-58.95c2.58-5.93,5.79-11.48,9.59-16.64l43.41,43.41C650.71,605.78,645.15,609,639.23,611.58L639.23,611.58z M674.8,584.45
				l-44.8-44.8l190.53-190.54l44.8,44.8L674.8,584.45z M883.57,375.68l-44.8-44.8l18.8-18.8l44.8,44.8L883.57,375.68z
				 M946.91,312.34l-26.3,26.31l-44.8-44.8l26.31-26.31c7.54-7.54,19.8-7.54,27.34,0L946.91,285
				C954.47,292.55,954.47,304.78,946.91,312.34z"/>
			<path class="st1" d="M859.98,470.73c-7.12,0-12.89,5.77-12.89,12.89v156.76c0,42.39-34.49,76.88-76.88,76.88H381.35
				c-10.81,0-21.08,4.1-28.91,11.54L213.83,860.39l20.4-113.26c2.8-15.53-9.13-29.85-24.95-29.85h-8.49
				c-42.4,0-76.88-34.49-76.88-76.88V289.95c0-42.39,34.49-76.88,76.88-76.88h569.42c22.59,0,43.94,9.88,58.59,27.1
				c4.61,5.42,12.75,6.08,18.18,1.47c5.42-4.61,6.08-12.75,1.47-18.18c-19.56-22.99-48.07-36.18-78.23-36.18H200.78
				c-56.61,0-102.67,46.06-102.67,102.67v350.45c0,56.61,46.06,102.67,102.67,102.67h7.98l-22.03,122.31
				c-1.74,9.64,2.89,19.25,11.51,23.9c8.73,4.71,19.28,3.16,26.3-3.5L370.2,747.51c3.02-2.87,6.98-4.45,11.15-4.45h388.85
				c56.61,0,102.67-46.06,102.67-102.67V483.63C872.88,476.51,867.11,470.73,859.98,470.73z"/>
		</g>
	</g>
</g>
</svg>
