<?xml version="1.0" encoding="utf-8"?>
<!-- Generator: Adobe Illustrator 24.1.3, SVG Export Plug-In . SVG Version: 6.00 Build 0)  -->
<svg version="1.1" id="Camada_1" xmlns="http://www.w3.org/2000/svg" xmlns:xlink="http://www.w3.org/1999/xlink" x="0px" y="0px"
	 viewBox="0 0 1080 1080" style="enable-background:new 0 0 1080 1080;" xml:space="preserve">
<style type="text/css">
	.st0{fill:#ECF4E9;}
	.st1{fill:#0F3547;}
</style>
<path class="st0" d="M866,738.93c0,56.99-46.19,103.19-103.18,103.19H365.37c-56.99,0-103.18-46.2-103.18-103.19V341.49
	c0-56.99,46.19-103.19,103.18-103.19h397.45c56.99,0,103.18,46.19,103.18,103.19V738.93z"/>
<path class="st1" d="M676.49,842.12V610.3h77.81l11.65-90.35h-89.47v-57.69c0-26.15,7.26-43.97,44.77-43.97l47.84-0.02v-80.81
	c-8.28-1.1-36.67-3.56-69.72-3.56c-68.97,0-116.19,42.11-116.19,119.42v66.63h-78.01v90.35h78.01v231.82H676.49L676.49,842.12z"/>
</svg>
