<?xml version="1.0" encoding="utf-8"?>
<!-- Generator: Adobe Illustrator 24.1.3, SVG Export Plug-In . SVG Version: 6.00 Build 0)  -->
<svg version="1.1" id="Camada_1" xmlns="http://www.w3.org/2000/svg" xmlns:xlink="http://www.w3.org/1999/xlink" x="0px" y="0px"
	 viewBox="0 0 1080 1080" style="enable-background:new 0 0 1080 1080;" xml:space="preserve">
<style type="text/css">
	.st0{fill:#ECF4E9;}
	.st1{fill:#0F3547;}
</style>
<path id="XMLID_348_" class="st0" d="M818.64,859H260.41c-21.91,0-39.67-17.76-39.67-39.67V261.1c0-21.91,17.76-39.67,39.67-39.67
	h558.23c21.91,0,39.67,17.76,39.67,39.67v558.23C858.31,841.24,840.55,859,818.64,859z"/>
<g id="XMLID_340_">
	<path id="XMLID_345_" class="st1" d="M609.23,720.02H469.82c-60.71,0-110.1-49.39-110.1-110.1V470.51
		c0-60.71,49.39-110.1,110.1-110.1h139.41c60.71,0,110.1,49.39,110.1,110.1v139.41C719.33,670.63,669.94,720.02,609.23,720.02z
		 M469.82,387.34c-45.86,0-83.17,37.31-83.17,83.17v139.41c0,45.86,37.31,83.17,83.17,83.17h139.41c45.86,0,83.17-37.31,83.17-83.17
		V470.51c0-45.86-37.31-83.17-83.17-83.17H469.82z"/>
	<path id="XMLID_342_" class="st1" d="M539.52,631.18c-50.16,0-90.96-40.81-90.96-90.96c0-50.16,40.8-90.97,90.96-90.97
		c50.16,0,90.96,40.81,90.96,90.97C630.49,590.37,589.68,631.18,539.52,631.18z M539.52,476.82c-34.95,0-63.39,28.44-63.39,63.39
		c0,34.95,28.44,63.39,63.39,63.39c34.95,0,63.39-28.44,63.39-63.39C602.91,505.26,574.48,476.82,539.52,476.82z"/>
	<path id="XMLID_341_" class="st1" d="M664.07,439.35c0,13.08-10.6,23.68-23.68,23.68c-13.08,0-23.68-10.6-23.68-23.68
		c0-13.08,10.6-23.68,23.68-23.68C653.47,415.67,664.07,426.27,664.07,439.35z"/>
</g>
</svg>
