<?xml version="1.0" encoding="utf-8"?>
<!-- Generator: Adobe Illustrator 24.1.3, SVG Export Plug-In . SVG Version: 6.00 Build 0)  -->
<svg version="1.1" id="Camada_1" xmlns="http://www.w3.org/2000/svg" xmlns:xlink="http://www.w3.org/1999/xlink" x="0px" y="0px"
	 viewBox="0 0 1080 1080" style="enable-background:new 0 0 1080 1080;" xml:space="preserve">
<style type="text/css">
	.st0{fill:#ECF4E9;}
	.st1{fill:#0F3547;}
</style>
<rect x="111.73" y="112.43" class="st0" width="855.58" height="855.57"/>
<g>
	<path class="st1" d="M324.1,465.57h92.41v296.88H324.1V465.57z M370.34,317.98c29.54,0,53.5,23.99,53.5,53.49
		c0,29.53-23.96,53.51-53.5,53.51c-29.65,0-53.56-23.99-53.56-53.51C316.78,341.97,340.69,317.98,370.34,317.98"/>
	<path class="st1" d="M474.45,465.57h88.5v40.58h1.26c12.31-23.36,42.45-47.96,87.36-47.96c93.41,0,110.7,61.46,110.7,141.42v162.84
		h-92.24V618.11c0-34.46-0.68-78.75-47.99-78.75c-48.05,0-55.37,37.5-55.37,76.21v146.89h-92.21V465.57z"/>
</g>
</svg>
