<?xml version="1.0" encoding="utf-8"?>
<!-- Generator: Adobe Illustrator 24.2.1, SVG Export Plug-In . SVG Version: 6.00 Build 0)  -->
<svg version="1.1" id="Camada_1" xmlns="http://www.w3.org/2000/svg" xmlns:xlink="http://www.w3.org/1999/xlink" x="0px" y="0px"
	 viewBox="0 0 192 192" style="enable-background:new 0 0 192 192;" xml:space="preserve">
<style type="text/css">
	.st0{display:none;fill:#0E3447;}
	.st1{fill:#0E3447;}
</style>
<rect class="st0" width="192" height="192"/>
<g>
	<path class="st1" d="M152.06,80.68c0.36,0,0.71,0.01,1.07,0.03c0.36,0.02,0.71,0.04,1.06,0.08c0.35,0.03,0.71,0.08,1.06,0.13
		c0.35,0.05,0.7,0.11,1.05,0.18c0.35,0.07,0.7,0.15,1.04,0.23c0.34,0.09,0.69,0.18,1.03,0.28c0.34,0.1,0.68,0.21,1.01,0.33
		c0.33,0.12,0.67,0.25,1,0.38c0.33,0.14,0.65,0.28,0.97,0.43c0.32,0.15,0.64,0.31,0.95,0.48c0.31,0.17,0.62,0.34,0.93,0.53
		c0.31,0.18,0.61,0.37,0.9,0.57s0.59,0.4,0.87,0.61c0.29,0.21,0.57,0.43,0.84,0.66c0.27,0.23,0.54,0.46,0.81,0.7
		c0.26,0.24,0.52,0.48,0.77,0.74c0.25,0.25,0.5,0.51,0.74,0.77c0.24,0.26,0.47,0.53,0.7,0.81c0.23,0.27,0.44,0.56,0.66,0.84
		c0.21,0.29,0.42,0.58,0.61,0.87c0.2,0.3,0.39,0.6,0.57,0.9c0.18,0.31,0.36,0.61,0.53,0.93c0.17,0.31,0.33,0.63,0.48,0.95
		c0.15,0.32,0.3,0.65,0.43,0.97c0.14,0.33,0.26,0.66,0.38,0.99c0.12,0.33,0.23,0.67,0.33,1.01s0.2,0.68,0.28,1.03
		c0.09,0.34,0.16,0.69,0.23,1.04c0.07,0.35,0.13,0.7,0.18,1.05c0.05,0.35,0.1,0.7,0.13,1.06c0.03,0.35,0.06,0.71,0.08,1.06
		c0.02,0.36,0.03,0.71,0.03,1.07c0,0.36-0.01,0.71-0.03,1.07c-0.02,0.36-0.04,0.71-0.08,1.06c-0.03,0.35-0.08,0.71-0.13,1.06
		c-0.05,0.35-0.11,0.7-0.18,1.05c-0.07,0.35-0.15,0.7-0.23,1.04c-0.09,0.34-0.18,0.69-0.28,1.03s-0.21,0.68-0.33,1.01
		c-0.12,0.33-0.25,0.67-0.38,0.99c-0.14,0.33-0.28,0.65-0.43,0.97c-0.15,0.32-0.31,0.64-0.48,0.95c-0.17,0.31-0.34,0.62-0.53,0.93
		c-0.18,0.31-0.37,0.61-0.57,0.9c-0.2,0.3-0.4,0.59-0.61,0.87c-0.21,0.29-0.43,0.57-0.66,0.84c-0.23,0.27-0.46,0.54-0.7,0.81
		c-0.24,0.26-0.48,0.52-0.74,0.77c-0.25,0.25-0.51,0.5-0.77,0.74c-0.26,0.24-0.53,0.47-0.81,0.7s-0.56,0.44-0.84,0.66
		c-0.29,0.21-0.58,0.42-0.87,0.61s-0.6,0.39-0.9,0.57c-0.3,0.18-0.61,0.36-0.93,0.53s-0.63,0.33-0.95,0.48
		c-0.32,0.15-0.65,0.3-0.97,0.43c-0.33,0.14-0.66,0.26-1,0.38c-0.33,0.12-0.67,0.23-1.01,0.33c-0.34,0.1-0.68,0.2-1.03,0.28
		c-0.34,0.09-0.69,0.16-1.04,0.23c-0.35,0.07-0.7,0.13-1.05,0.18c-0.35,0.05-0.7,0.1-1.06,0.13c-0.35,0.03-0.71,0.06-1.06,0.08
		c-0.36,0.02-0.71,0.03-1.07,0.03c-0.36,0-0.71-0.01-1.07-0.03c-0.36-0.02-0.71-0.04-1.06-0.08s-0.71-0.08-1.06-0.13
		c-0.35-0.05-0.7-0.11-1.05-0.18s-0.7-0.15-1.04-0.23c-0.34-0.09-0.69-0.18-1.03-0.28c-0.34-0.1-0.68-0.21-1.01-0.33
		c-0.33-0.12-0.67-0.25-1-0.38c-0.33-0.14-0.65-0.28-0.97-0.43c-0.32-0.15-0.64-0.31-0.95-0.48c-0.31-0.17-0.62-0.34-0.93-0.53
		c-0.31-0.18-0.61-0.37-0.9-0.57s-0.59-0.4-0.87-0.61c-0.29-0.21-0.57-0.43-0.84-0.66c-0.27-0.23-0.54-0.46-0.81-0.7
		c-0.26-0.24-0.52-0.48-0.77-0.74c-0.25-0.25-0.5-0.51-0.74-0.77c-0.24-0.26-0.47-0.53-0.7-0.81c-0.23-0.27-0.44-0.56-0.66-0.84
		c-0.21-0.29-0.42-0.58-0.61-0.87c-0.2-0.3-0.39-0.6-0.57-0.9c-0.18-0.31-0.36-0.61-0.53-0.93c-0.17-0.31-0.33-0.63-0.48-0.95
		c-0.15-0.32-0.3-0.65-0.43-0.97s-0.26-0.66-0.38-0.99c-0.12-0.33-0.23-0.67-0.33-1.01c-0.1-0.34-0.2-0.68-0.28-1.03
		c-0.09-0.34-0.16-0.69-0.23-1.04c-0.07-0.35-0.13-0.7-0.18-1.05s-0.1-0.7-0.13-1.06c-0.03-0.35-0.06-0.71-0.08-1.06
		c-0.02-0.36-0.03-0.71-0.03-1.07c0-0.36,0.01-0.71,0.03-1.07c0.02-0.36,0.04-0.71,0.08-1.06c0.03-0.35,0.08-0.71,0.13-1.06
		s0.11-0.7,0.18-1.05c0.07-0.35,0.15-0.7,0.23-1.04c0.09-0.34,0.18-0.69,0.28-1.03c0.1-0.34,0.21-0.68,0.33-1.01
		c0.12-0.33,0.25-0.67,0.38-0.99c0.14-0.33,0.28-0.65,0.43-0.97c0.15-0.32,0.31-0.64,0.48-0.95c0.17-0.31,0.34-0.62,0.53-0.93
		c0.18-0.31,0.37-0.61,0.57-0.9c0.2-0.3,0.4-0.59,0.61-0.87c0.21-0.29,0.43-0.57,0.66-0.84c0.23-0.27,0.46-0.54,0.7-0.81
		c0.24-0.26,0.48-0.52,0.74-0.77c0.25-0.25,0.51-0.5,0.77-0.74c0.26-0.24,0.53-0.47,0.81-0.7c0.27-0.23,0.56-0.44,0.84-0.66
		c0.29-0.21,0.58-0.42,0.87-0.61s0.6-0.39,0.9-0.57c0.3-0.18,0.61-0.36,0.93-0.53c0.31-0.17,0.63-0.33,0.95-0.48
		c0.32-0.15,0.65-0.3,0.97-0.43c0.33-0.14,0.66-0.26,1-0.38c0.33-0.12,0.67-0.23,1.01-0.33c0.34-0.1,0.68-0.2,1.03-0.28
		c0.34-0.09,0.69-0.16,1.04-0.23c0.35-0.07,0.7-0.13,1.05-0.18c0.35-0.05,0.7-0.1,1.06-0.13c0.35-0.03,0.71-0.06,1.06-0.08
		C151.35,80.69,151.7,80.68,152.06,80.68z"/>
	<path class="st1" d="M110.77,86.11c-3.04,0-5.43,2.39-5.43,5.43s2.39,5.43,5.43,5.43c3.04,0,5.43-2.39,5.43-5.43
		S113.82,86.11,110.77,86.11z M110.77,99.15c-4.13,0-7.6-3.48-7.6-7.6c0-4.13,3.48-7.6,7.6-7.6c4.13,0,7.6,3.48,7.6,7.6
		C118.38,95.67,114.9,99.15,110.77,99.15z"/>
	<path class="st1" d="M124.9,80.68c-0.65,0-1.09,0.43-1.09,1.09c0,0.65,0.43,1.09,1.09,1.09c0.65,0,1.09-0.43,1.09-1.09
		C125.98,81.12,125.55,80.68,124.9,80.68z M124.9,85.03c-1.74,0-3.26-1.52-3.26-3.26s1.52-3.26,3.26-3.26s3.26,1.52,3.26,3.26
		S126.64,85.03,124.9,85.03z"/>
	
		<rect x="62.89" y="64.89" transform="matrix(0.2425 -0.9701 0.9701 0.2425 -36.204 128.1664)" class="st1" width="2.17" height="44.76"/>
	
		<rect x="85.7" y="50.76" transform="matrix(0.2316 -0.9728 0.9728 0.2316 -5.5213 141.4658)" class="st1" width="2.17" height="46.93"/>
	
		<rect x="95.69" y="80.15" transform="matrix(0.2216 -0.9751 0.9751 0.2216 -26.7667 175.868)" class="st1" width="2.17" height="49.1"/>
	
		<rect x="92.33" y="79.57" transform="matrix(0.1961 -0.9806 0.9806 0.1961 -8.3626 160.028)" class="st1" width="2.17" height="11.08"/>
	
		<rect x="99.94" y="93.7" transform="matrix(0.1644 -0.9864 0.9864 0.1644 -14.5449 183.4789)" class="st1" width="2.17" height="13.25"/>
	<path class="st1" d="M149.45,74.16L97.3,62.43l-0.43,2.17l52.36,11.73c1.74,0.65,11.3,2.61,12.17,3.04
		c9.34,3.69,15.86,12.6,15.86,23.25c0,13.69-11.3,24.99-24.99,24.99c-2.39,0-4.56-0.22-6.52-0.87c-0.87-0.22-8.26-2.61-8.26-2.61
		L13.65,84.38L13,86.55l123.2,39.33c0,0,10.65,3.26,10.86,3.26c1.52,0.22,3.26,0.43,4.78,0.43c14.99,0,27.16-12.17,27.16-27.16
		c0-11.73-7.39-21.73-17.82-25.42C160.97,76.77,149.45,74.16,149.45,74.16z"/>
</g>
</svg>
