<?xml version="1.0" encoding="utf-8"?>
<!-- Generator: Adobe Illustrator 24.1.3, SVG Export Plug-In . SVG Version: 6.00 Build 0)  -->
<svg version="1.1" id="content_1_" xmlns="http://www.w3.org/2000/svg" xmlns:xlink="http://www.w3.org/1999/xlink" x="0px" y="0px"
	 viewBox="0 0 612 330" style="enable-background:new 0 0 612 330;" xml:space="preserve">
<style type="text/css">
	.st0{fill:#0F3547;}
	.st1{fill:#ECF6EA;}
	.st2{fill:#FFEECC;}
	.st3{fill:#FCEBCC;}
	.st4{fill:#FEEDCC;}
	.st5{fill:#FDECCC;}
</style>
<g id="XMLID_1717_">
	<g id="_x34__1_">
		<g id="XMLID_8617_">
			<g id="XMLID_8623_">
				<path id="XMLID_10191_" class="st0" d="M234.83,154.93l126.26-72c1.58-0.9,3.01-0.86,4.03-0.06l6.19,3.71l-4.58,6.52v97.89
					c0,4.1-2.53,8.87-5.64,10.65l-117.9,67.24l-6.07,8.64l-5.84-3.5c-1.27-0.64-2.09-2.25-2.09-4.58V165.57
					C229.19,161.47,231.71,156.7,234.83,154.93z"/>
			</g>
			<g id="XMLID_8622_">
				<path id="XMLID_10189_" class="st1" d="M264.7,149.73l104.93-58.71l1.68-3.84l-4.66-2.79c-1.02-0.8-2.45-0.84-4.03,0.06
					l-126.26,72c-1.73,0.99-3.28,2.9-4.31,5.11l-0.16,0.64l7.48,4.49L264.7,149.73z"/>
			</g>
			<g id="XMLID_8621_">
				<polygon id="XMLID_10187_" class="st1" points="231.06,165.98 237.85,170.02 237.25,172.56 231.06,168.75 				"/>
			</g>
			<g id="XMLID_8618_">
				<path id="XMLID_10183_" class="st1" d="M365.49,82.39c-1.26-0.98-2.97-0.97-4.7,0.01l-126.26,72
					c-3.28,1.87-5.94,6.88-5.94,11.17v103.84c0,2.48,0.88,4.34,2.38,5.09l6.32,3.79l6.31-8.98l117.78-67.17
					c3.28-1.87,5.94-6.88,5.94-11.17v-97.7l4.84-6.89L365.49,82.39z M366.13,92.9v98.08c0,3.91-2.4,8.45-5.34,10.13l-117.9,67.23
					l-5.94,8.36l-1.26-0.75l-0.23-1.86l-4.62-2.85c-0.63-0.39-1.05-1.06-1.06-1.81c0,0,0-0.01,0-0.01V165.57
					c0-3.91,2.4-8.45,5.34-10.13l126.26-72c1.31-0.74,2.5-0.78,3.43-0.06l5.64,3.38L366.13,92.9z"/>
			</g>
		</g>
		<g id="_x31_8_1_">
			<g id="XMLID_8616_">
				<path id="XMLID_10180_" class="st1" d="M330.45,243.39l-25.6-14.53c-2.48-1.41-6.64-1.25-9.48,0.36l-15.57,8.89l-7.4,3.31v3.38
					h0.05c0.17,0.88,0.78,1.65,1.79,2.23l31.54,17.92c1.13,0.65,2.62,0.96,4.17,0.96c1.84,0,3.78-0.45,5.32-1.33l20.5-11.69
					c1.49-0.85,2.37-1.98,2.47-3.26c0-0.11,0.01-0.21,0-0.27v-2.75L330.45,243.39z"/>
			</g>
			<g id="XMLID_8610_">
				<g id="XMLID_8615_">
					<path id="XMLID_10178_" class="st0" d="M274.53,243.91l31.54,17.92c2.28,1.3,6.26,1.14,8.89-0.36l20.5-11.69
						c2.63-1.5,2.92-3.77,0.64-5.07l-31.54-17.92c-2.28-1.3-6.26-1.14-8.89,0.36l-20.5,11.69
						C272.53,240.34,272.25,242.61,274.53,243.91z"/>
				</g>
				<g id="XMLID_8614_">
					<path id="XMLID_10176_" class="st1" d="M332.64,247.33l-8.57-5.08c-2.8-1.66-6.27-1.69-9.1-0.08l-21.47,12.28l12.98,7.37
						c2.28,1.3,6.26,1.14,8.89-0.36L332,252.4C334.63,250.9,334.92,248.63,332.64,247.33z"/>
				</g>
				<g id="XMLID_8611_">
					<path id="XMLID_10172_" class="st1" d="M309.94,263.31c-1.55,0-3.03-0.32-4.17-0.96l-31.54-17.92
						c-1.19-0.68-1.84-1.64-1.84-2.72c0-1.25,0.9-2.49,2.48-3.39l20.5-11.69c2.84-1.62,7-1.78,9.48-0.36l31.54,17.92
						c1.19,0.68,1.84,1.64,1.84,2.72c0,1.25-0.9,2.49-2.48,3.39l-20.5,11.69C313.71,262.86,311.78,263.31,309.94,263.31z
						 M274.82,243.39l31.54,17.92c2.11,1.21,5.83,1.04,8.3-0.36l20.5-11.69c1.19-0.68,1.88-1.53,1.88-2.35
						c0-0.81-0.67-1.36-1.24-1.68l-31.54-17.92c-2.11-1.2-5.83-1.04-8.3,0.36l-20.5,11.69c-1.19,0.68-1.87,1.53-1.87,2.35
						C273.59,242.51,274.26,243.06,274.82,243.39L274.82,243.39z"/>
				</g>
			</g>
		</g>
		<g id="XMLID_8609_">
			<path id="XMLID_10169_" class="st1" d="M371.32,85.85c-1.22-0.71-2.75-0.61-4.31,0.28l-126.26,72
				c-3.28,1.87-5.94,6.88-5.94,11.17v103.84c0,2.32,0.94,3.36,1.73,3.81c0.51,0.3,1.12,0.44,1.79,0.44c1.07,0,2.31-0.37,3.59-1.1
				l125.69-70.42c3.28-1.87,5.94-6.88,5.94-11.17V90.87C373.54,88.5,372.73,86.68,371.32,85.85z"/>
		</g>
		<g id="XMLID_8604_">
			<g id="XMLID_8608_">
				<path id="XMLID_10167_" class="st0" d="M372.95,182.64v12.59c0,3.82-2.71,8.46-6.06,10.37l-125.42,71.52
					c-3.35,1.91-6.06,0.36-6.06-3.46v-12.59L372.95,182.64z"/>
			</g>
			<g id="XMLID_8605_">
				<path id="XMLID_10163_" class="st1" d="M238.76,278.54c-0.69,0-1.33-0.16-1.9-0.49c-1.32-0.77-2.05-2.33-2.05-4.38v-12.93
					l0.3-0.17l138.44-78.95v13.62c0,4-2.85,8.89-6.36,10.89l-125.42,71.52C240.71,278.24,239.69,278.54,238.76,278.54z M236,261.42
					v12.24c0,1.61,0.52,2.8,1.46,3.35c0.95,0.56,2.27,0.41,3.71-0.41l125.42-71.52c3.18-1.81,5.76-6.23,5.76-9.85v-11.56L236,261.42
					z"/>
			</g>
		</g>
		<g id="XMLID_8599_">
			<g id="XMLID_8603_">
				<path id="XMLID_10160_" class="st0" d="M243.61,248.55l121.13-69.08c1.1-0.63,1.99-2.31,1.99-3.75V96.41
					c0-1.45-0.89-2.11-1.99-1.49L243.61,164c-1.1,0.63-1.99,2.31-1.99,3.75v79.32C241.62,248.52,242.51,249.18,243.61,248.55z"/>
			</g>
			<g id="XMLID_8600_">
				<path id="XMLID_10156_" class="st1" d="M242.82,249.39c-0.29,0-0.57-0.07-0.82-0.22c-0.62-0.36-0.98-1.13-0.98-2.1v-79.32
					c0-1.66,1.01-3.54,2.29-4.27L364.44,94.4c0.68-0.39,1.35-0.42,1.91-0.1c0.62,0.36,0.98,1.13,0.98,2.1v79.32
					c0,1.66-1.01,3.54-2.29,4.27l-121.13,69.08C243.54,249.29,243.17,249.39,242.82,249.39z M365.53,95.28
					c-0.18,0-0.37,0.09-0.49,0.16l-121.13,69.08c-0.92,0.52-1.69,2-1.69,3.24v79.32c0,0.52,0.15,0.93,0.38,1.07
					c0.23,0.13,0.54-0.01,0.71-0.1l121.13-69.08c0.92-0.52,1.69-2,1.69-3.24V96.41c0-0.52-0.15-0.93-0.38-1.07
					C365.68,95.3,365.6,95.28,365.53,95.28z"/>
			</g>
		</g>
	</g>
	<g id="XMLID_1088_">
		<g id="XMLID_1089_">
			<g id="XMLID_1095_">
				<g id="XMLID_1116_">
					<path id="XMLID_10153_" class="st0" d="M227.13,251.66v-17.57L252,219.68v17.57c0,0-0.36,8.83,3.39,10.92
						c3.74,2.09,3.74,2.09,3.74,2.09l-24.87,14.41c0,0,0,0-3.74-2.09C226.77,260.49,227.13,251.66,227.13,251.66z"/>
				</g>
				<g id="XMLID_1109_">
					<path id="XMLID_10151_" class="st2" d="M223.99,257.06v-17.57l24.87-14.41v17.57c0,0-0.36,8.83,3.39,10.92
						c3.74,2.09,3.74,2.09,3.74,2.09l-24.87,14.41c0,0,0,0-3.74-2.09C223.63,265.9,223.99,257.06,223.99,257.06z"/>
				</g>
				<g id="XMLID_1096_">
					<path id="XMLID_10147_" class="st1" d="M234.26,265.44l26.2-15.18l-4.76-2.66c-2.78-1.55-3.14-7.98-3.05-10.32l0-18.75
						l-26.19,15.18v17.94c-0.02,0.54-0.29,9.27,3.72,11.51L234.26,265.44z M257.79,250.28l-23.54,13.64l-3.41-1.91
						c-2.78-1.55-3.14-7.98-3.05-10.32v-17.22l23.55-13.65v16.43c-0.01,0.35-0.32,9.24,3.72,11.5L257.79,250.28z"/>
				</g>
			</g>
		</g>
		<g id="XMLID_1093_">
			<g id="XMLID_1713_">
				<path id="XMLID_10143_" class="st0" d="M238.87,245.52l-1.68-6.75c0.54-0.47,1.1-0.88,1.68-1.22c3.81-2.2,6.9-0.42,6.9,3.98
					c0,4.4-3.09,9.75-6.9,11.95c-3.81,2.2-6.9,0.42-6.9-3.98c0-0.6,0.06-1.22,0.17-1.84L238.87,245.52z"/>
			</g>
			<g id="XMLID_1712_">
				<g id="XMLID_1091_">
					<path id="XMLID_10141_" class="st0" d="M236.86,244.67l-6.73,2.14c0.57-3.26,2.53-6.71,5.05-8.89L236.86,244.67z"/>
				</g>
				<g id="XMLID_1092_">
					<path id="XMLID_10137_" class="st1" d="M230.67,245.24l8.2-2.61l-2.05-8.23l-0.73,0.64c-2.64,2.29-4.65,5.83-5.25,9.24
						L230.67,245.24z M237.44,241.83l-5.21,1.66c0.65-2.49,2.1-5.03,3.91-6.88L237.44,241.83z"/>
				</g>
			</g>
			<g id="XMLID_1714_">
				<path id="XMLID_10132_" class="st1" d="M237.52,253.03c1.05,0,2.2-0.34,3.38-1.03c3.97-2.29,7.2-7.88,7.2-12.46
					c0-2.35-0.82-4.12-2.32-4.98c-1.49-0.87-3.44-0.69-5.47,0.48c-0.58,0.34-1.18,0.77-1.77,1.28l-0.28,0.24l1.63,6.56l-6.54,2.08
					l-0.06,0.36c-0.12,0.68-0.18,1.34-0.18,1.95c0,2.35,0.82,4.12,2.32,4.98C236.05,252.85,236.76,253.03,237.52,253.03z
					 M243.68,235.21c0.55,0,1.06,0.13,1.5,0.38c1.11,0.64,1.72,2.04,1.72,3.95c0,4.2-2.96,9.33-6.6,11.43
					c-1.65,0.95-3.17,1.12-4.28,0.48c-1.11-0.64-1.72-2.04-1.72-3.95c0-0.44,0.04-0.9,0.11-1.39l6.91-2.2l-1.72-6.93
					c0.44-0.36,0.88-0.67,1.31-0.92C241.89,235.5,242.84,235.21,243.68,235.21z"/>
			</g>
		</g>
	</g>
</g>
<g id="XMLID_1125_">
	<g id="XMLID_1666_">
		<g id="XMLID_1946_">
			<path id="XMLID_9457_" class="st0" d="M270.24,181.15l4.31-23.19c3.04-0.91,5.86-0.8,8.17,0.32l0-0.01l0.22,0.11
				c0.11,0.06,0.21,0.11,0.32,0.17l3.88,2.06l-0.44,1.45c0.3,0.51,0.57,1.05,0.81,1.65c3.57,8.95-1.26,24.01-10.79,33.64
				c-4.84,4.88-9.95,7.43-14.29,7.59l-0.88,1.1l-3.52-1.9c-0.42-0.18-0.82-0.4-1.2-0.65l-0.01-0.01l0,0
				c-1.62-1.06-2.94-2.69-3.83-4.9c-0.49-1.22-0.81-2.56-1-3.98L270.24,181.15z"/>
			<path id="XMLID_9447_" class="st3" d="M270.26,182.21l4.31-23.19c3.04-0.91,5.86-0.8,8.17,0.32l0-0.01l0.22,0.11
				c0.11,0.06,0.21,0.11,0.32,0.17l3.88,2.06l-0.44,1.45c0.3,0.51,0.57,1.05,0.81,1.65c3.57,8.95-1.26,24.01-10.79,33.64
				c-4.84,4.88-9.95,7.43-14.29,7.59l0.23-1.88l1.77-2.38c-0.42-0.18-2.97,0.9-3.36,0.65l2.8-1.42l-0.66,0.12
				c-1.62-1.06,0.88,0.55,0-1.67c-0.49-1.22-0.08-1.28-0.27-2.7L270.26,182.21z"/>
			<path id="XMLID_9458_" class="st1" d="M261.66,206.62l0.99-1.24c4.6-0.25,9.69-2.98,14.38-7.71c9.64-9.73,14.52-25.04,10.9-34.13
				c-0.21-0.52-0.45-1.02-0.74-1.53l0.5-1.62l-4.22-2.23c-0.08-0.05-0.17-0.09-0.27-0.14l-0.69-0.36l-0.02,0.03
				c-2.34-0.99-5.12-1.05-8.09-0.16l-0.27,0.08l-4.32,23.28l-18.33,13.51l0.04,0.27c0.19,1.5,0.54,2.88,1.03,4.09
				c0.88,2.22,2.2,3.92,3.92,5.06l0.1,0.06c0.39,0.25,0.81,0.48,1.26,0.68L261.66,206.62z M286.59,160.84l-0.39,1.28l0.1,0.17
				c0.31,0.54,0.57,1.06,0.78,1.59c3.5,8.78-1.29,23.64-10.7,33.14c-4.6,4.64-9.56,7.29-13.98,7.45l-0.21,0.01l-0.77,0.97
				l-3.19-1.72c-0.42-0.19-0.8-0.39-1.14-0.61l-0.04-0.03c-1.59-1.04-2.82-2.61-3.65-4.69c-0.43-1.07-0.74-2.29-0.93-3.6l18.19-13.4
				l4.29-23.09c2.82-0.79,5.43-0.66,7.57,0.37l0.21,0.1c0.14,0.07,0.22,0.12,0.3,0.16L286.59,160.84z"/>
		</g>
		<g id="XMLID_1944_">
			<path id="XMLID_9453_" class="st0" d="M274.47,183.39l4.31-23.19c5.75-1.72,10.73,0.16,12.96,5.75
				c3.57,8.95-1.26,24.01-10.79,33.64c-9.53,9.63-20.16,10.18-23.73,1.24c-0.49-1.22-0.81-2.56-1-3.98L274.47,183.39z"/>
			<path id="XMLID_9454_" class="st1" d="M266.2,207.65c4.68,0,10.15-2.77,15.06-7.74c9.64-9.73,14.52-25.04,10.89-34.13
				c-2.25-5.63-7.3-7.88-13.52-6.02l-0.27,0.08l-4.32,23.28l-18.33,13.51l0.04,0.27c0.19,1.5,0.54,2.87,1.03,4.09
				c1.41,3.54,3.92,5.76,7.26,6.44C264.74,207.58,265.46,207.65,266.2,207.65z M282.69,160.06c3.94,0,7.04,2.12,8.61,6.07
				c3.51,8.78-1.29,23.65-10.69,33.14c-5.47,5.52-11.6,8.24-16.39,7.27c-3.02-0.61-5.3-2.65-6.59-5.88
				c-0.43-1.08-0.74-2.29-0.93-3.6l18.19-13.4l4.29-23.09C280.4,160.23,281.58,160.06,282.69,160.06z"/>
		</g>
		<polygon id="XMLID_9449_" class="st1" points="278.78,160.21 274.55,157.96 270.24,181.15 274.47,183.39 		"/>
		<g id="XMLID_1669_">
			<polygon id="XMLID_9445_" class="st0" points="256.21,196.85 251.98,194.6 270.24,181.15 274.47,183.39 			"/>
			<polygon id="XMLID_9448_" class="st3" points="256.21,196.85 254.17,195.79 271,183.39 273.47,184.7 			"/>
			<path id="XMLID_9489_" class="st1" d="M250.8,194.31l19.02-13.43l4.39-23.62l5.08,2.7l-4.31,23.19l-0.09,0.51l-0.38,0.28
				l-18.26,13.45L250.8,194.31z M278.26,160.45l-3.37-1.79l-4.13,22.24l3.37,1.79L278.26,160.45z M270.28,181.69l-17.44,12.85
				l3.32,1.77l17.44-12.85L270.28,181.69z"/>
		</g>
	</g>
	<g id="XMLID_1665_">
		<g id="XMLID_1667_">
			<path id="XMLID_9440_" class="st0" d="M248.61,187.57c0.41-4.68,2.02-9.81,4.6-14.63c1.92-3.59,4.38-7.01,7.26-9.93
				c3.58-3.62,7.32-5.95,10.77-6.99l4.23,2.25l-4.23,9.36l-2.98,4.43l-1.3,7.01c-0.01,0.07-0.09,0.11-0.16,0.08l-0.03-0.02
				c0.06,0.03,0.06,0.11,0,0.15l0.01,0c0.02-0.01,0.03,0.02,0.02,0.03l-6.76,4.98l-7.14,10.62l-4.23-2.25
				C248.48,191.06,248.46,189.35,248.61,187.57z"/>
			<path id="XMLID_9450_" class="st3" d="M248.55,189.42c0.41-4.68,2.02-9.81,4.6-14.63c1.92-3.59,4.38-7.01,7.26-9.93
				c3.58-3.62,7.32-5.95,10.77-6.99l4.23,2.25l-4.23,9.36l-2.98,4.43l-1.3,7.01c-0.01,0.07-0.09,0.11-0.16,0.08l-0.03-0.02
				c0.06,0.03,0.06,0.11,0,0.15l0.01,0c0.02-0.01,0.03,0.02,0.02,0.03l-6.76,4.98l-7.14,8.39l-4.16-1.87
				C248.48,191.06,248.39,191.2,248.55,189.42z"/>
			<path id="XMLID_9441_" class="st1" d="M253.06,195.51l7.32-10.9l7.03-5.18l-0.06-0.1c0.03-0.05,0.05-0.11,0.06-0.18l1.29-6.92
				l2.92-4.35l4.44-9.82l-4.77-2.54l-0.18,0.05c-3.66,1.09-7.45,3.55-10.97,7.1c-2.85,2.88-5.32,6.25-7.34,10.03
				c-2.59,4.84-4.24,10.1-4.65,14.8l0,0c-0.16,1.83-0.13,3.58,0.07,5.2l0.03,0.24L253.06,195.51z M265.26,179.88l-5.59,4.15
				l-6.91,10.27l-3.65-1.94c-0.17-1.49-0.19-3.09-0.04-4.77l0,0c0.4-4.59,2.02-9.72,4.55-14.45c1.95-3.65,4.44-7.05,7.19-9.82
				c3.35-3.39,6.95-5.74,10.4-6.81l3.68,1.95l-4.05,8.97l-3.01,4.53l-1.29,6.92l-1.92,1.05L265.26,179.88z M266.74,179.15
				l-0.02,0.01l-0.17-0.22l-0.01,0.01c0.01-0.02,0.02-0.04,0.03-0.07c0,0,0,0,0.01,0l-0.01,0c0.03-0.06,0.08-0.11,0.14-0.14
				c0.08-0.04,0.17-0.05,0.26-0.03l-0.36,0.15L266.74,179.15z"/>
		</g>
		<g id="XMLID_1940_">
			<g id="XMLID_1943_">
				<path id="XMLID_9436_" class="st0" d="M271.04,181.4l-13.6-6.21c1.92-3.59,4.38-7.01,7.26-9.93c3.58-3.62,7.32-5.95,10.77-6.99
					l-4.28,23.05C271.19,181.39,271.11,181.43,271.04,181.4z"/>
				<path id="XMLID_9437_" class="st1" d="M271.09,181.87c0.09,0,0.18-0.02,0.27-0.07c0.16-0.08,0.27-0.23,0.3-0.41l4.42-23.78
					l-0.72,0.22c-3.66,1.09-7.45,3.55-10.97,7.1c-2.85,2.88-5.32,6.25-7.34,10.03l-0.23,0.43l14.05,6.42
					C270.93,181.85,271.01,181.87,271.09,181.87z M274.89,158.95l-4.06,21.85l-12.75-5.82c1.92-3.48,4.31-6.72,6.95-9.39
					C268.21,162.37,271.6,160.09,274.89,158.95z"/>
			</g>
			<g id="XMLID_1942_">
				<path id="XMLID_9432_" class="st0" d="M252.91,194.91c-0.21-1.61-0.23-3.32-0.07-5.1l18.18-8.28c0.02-0.01,0.03,0.02,0.02,0.03
					L252.91,194.91z"/>
				<path id="XMLID_9433_" class="st1" d="M252.56,195.75l19.09-14.06l-0.42-0.74l-0.4,0.16l-18.43,8.4l-0.02,0.27
					c-0.16,1.83-0.13,3.58,0.07,5.2L252.56,195.75z M267.34,183.71l-14.06,10.36c-0.11-1.25-0.11-2.57-0.01-3.95L267.34,183.71z"/>
			</g>
			<g id="XMLID_1941_">
				<path id="XMLID_9428_" class="st0" d="M271.01,181.53l-18.17,8.28c0.41-4.68,2.02-9.81,4.6-14.63l13.57,6.2
					C271.07,181.41,271.07,181.5,271.01,181.53z"/>
				<path id="XMLID_9446_" class="st3" d="M268.65,182.89l-14.4,6.6c0.81-4.75,1.45-6.75,3.67-11.27L268.65,182.89z"/>
				<path id="XMLID_9429_" class="st1" d="M252.31,190.56l19.16-8.73l0.05-0.67l-0.32-0.2l-13.96-6.38l-0.2,0.38
					c-2.59,4.84-4.24,10.1-4.65,14.8L252.31,190.56z M270.07,181.46l-16.69,7.6c0.49-4.25,1.99-8.92,4.27-13.28L270.07,181.46z"/>
			</g>
		</g>
	</g>
	<polygon id="XMLID_9451_" class="st1" points="254.8,181.15 250.56,178.93 248.93,185.15 248.58,191.82 248.97,192.82 
		252.47,194.81 253.01,188.34 	"/>
	<polygon id="XMLID_9452_" class="st1" points="259.1,204.72 255.72,202.64 253.53,199.76 252.31,196.25 251.98,194.6 
		256.21,196.85 257.78,202.17 	"/>
</g>
<g id="XMLID_9465_">
	<g id="XMLID_1101_">
		<g id="XMLID_1100_">
			<path id="XMLID_10432_" class="st0" d="M387.37,98.53v58.92l-94.12,54.34c-0.03,0.02-0.06-0.01-0.05-0.05l24.66-48.67l11.57,5.18
				l21.27-42.74l9.16,3.22l27.46-51.28c0.01-0.02,0.05-0.01,0.05,0.01V98.53z"/>
			<path id="XMLID_10433_" class="st1" d="M293.14,212.35l0.34-0.16l94.35-54.48v-80.6l-0.71-0.2l-0.2,0.32l-27.28,50.94l-9.18-3.22
				l-0.18,0.36l-21.07,42.34l-11.57-5.18l-25.01,49.36L293.14,212.35z M386.91,157.18l-92.65,53.49l23.81-47l11.57,5.19l21.29-42.77
				l9.15,3.22l26.83-50.1V157.18z"/>
		</g>
		<g id="XMLID_1099_">
			<polygon id="XMLID_10427_" class="st0" points="387.37,77.37 381.85,74.49 354.34,125.86 359.87,128.74 			"/>
			<polygon id="XMLID_10032_" class="st4" points="386.75,82.98 381.23,80.1 353.72,131.47 359.24,134.34 			"/>
			<path id="XMLID_10429_" class="st1" d="M360.06,129.35l27.71-51.74c0.13-0.24,0.04-0.54-0.21-0.67l-5.9-3.07l-27.94,52.18
				L360.06,129.35z M386.75,77.56l-27.07,50.56l-4.71-2.45l27.07-50.56L386.75,77.56z"/>
		</g>
		<g id="XMLID_9461_">
			<polygon id="XMLID_10428_" class="st1" points="359.71,129.17 360.08,128.33 354.5,125.43 345.33,122.21 344.97,123.05 
				350.49,125.92 			"/>
		</g>
		<g id="XMLID_9462_">
			<polygon id="XMLID_10405_" class="st0" points="345.18,122.64 323.91,165.38 329.43,168.25 350.7,125.51 			"/>
			<polygon id="XMLID_10420_" class="st5" points="345.18,128.12 323.91,170.86 329.43,173.73 350.7,130.99 			"/>
			<path id="XMLID_10424_" class="st1" d="M329.63,168.88l21.68-43.56l-6.34-3.3l-21.68,43.56L329.63,168.88z M350.09,125.71
				l-20.86,41.91l-4.71-2.45l20.86-41.91L350.09,125.71z"/>
		</g>
		<g id="XMLID_9463_">
			<polygon id="XMLID_10423_" class="st1" points="329.24,168.67 329.64,167.85 324.12,164.97 312.53,159.77 312.13,160.6 
				317.65,163.48 			"/>
		</g>
		<g id="XMLID_9464_">
			<polygon id="XMLID_10031_" class="st0" points="293.15,211.84 287.63,208.97 312.34,160.19 317.86,163.07 			"/>
			<polygon id="XMLID_10421_" class="st5" points="297.02,208.45 291.5,205.57 311.72,165.98 317.25,168.86 			"/>
			<path id="XMLID_10033_" class="st1" d="M293.35,212.46l25.13-49.59l-6.34-3.3l-25.13,49.59L293.35,212.46z M317.25,163.27
				l-24.29,47.95l-4.7-2.45l24.29-47.95L317.25,163.27z"/>
		</g>
	</g>
	<polygon id="XMLID_10437_" class="st1" points="324.86,170.53 336.42,175.71 357.66,133.04 366.85,136.26 396.28,81.07 
		393.04,79.35 400.83,74.49 401.14,83.66 397.9,81.94 367.73,138.52 358.59,135.31 337.29,178.11 325.71,172.93 301.4,220.92 
		299.76,220.09 	"/>
</g>
</svg>
