<?xml version="1.0" encoding="utf-8"?>
<!-- Generator: Adobe Illustrator 24.1.3, SVG Export Plug-In . SVG Version: 6.00 Build 0)  -->
<svg version="1.1" id="Camada_1" xmlns="http://www.w3.org/2000/svg" xmlns:xlink="http://www.w3.org/1999/xlink" x="0px" y="0px"
	 viewBox="0 0 16 16" style="enable-background:new 0 0 16 16;" xml:space="preserve">
<style type="text/css">
	.st0{fill:#0F3547;}
</style>
<g>
	<path class="st0" d="M11.16,10.11L9.7,11.6l-0.8-0.81C8.42,10.3,8.41,9.53,8.86,9.03c0.7-0.23,1.36-0.56,1.98-0.97
		c-0.03,0.34,0.09,0.67,0.32,0.91C11.48,9.28,11.48,9.79,11.16,10.11L11.16,10.11z M8.35,8.85L6.63,7.13c0.03-0.1,0.06-0.2,0.09-0.3
		c0,0,0,0,0,0l0,0c0.79-2.4,2.65-4.29,5.03-5.13c0.23-0.08,0.46-0.15,0.7-0.21c0.35,0.67,0.9,1.21,1.56,1.56
		C13.32,5.8,11.19,8.06,8.35,8.85L8.35,8.85z M7.24,9.48L6.02,8.26l1.06-0.22L7.5,8.46L7.24,9.48z M6.29,9.74
		c-0.05,0.17-0.19,0.29-0.36,0.31l-0.55,0.07l0.07-0.55C5.48,9.4,5.6,9.25,5.77,9.21c0.15-0.04,0.31,0.01,0.41,0.12
		C6.29,9.44,6.33,9.59,6.29,9.74L6.29,9.74z M4.71,6.6L3.89,5.8l1.49-1.47c0.31-0.31,0.82-0.31,1.14,0
		c0.24,0.24,0.57,0.36,0.91,0.32C7.01,5.27,6.68,5.94,6.44,6.64C5.94,7.09,5.18,7.07,4.71,6.6z M14.26,1.24
		c-0.01,0.49-0.07,0.99-0.16,1.47c-0.55-0.3-1-0.76-1.31-1.3C13.27,1.3,13.76,1.25,14.26,1.24L14.26,1.24z M11.28,7.75
		c2.08-1.59,3.31-4.06,3.31-6.68c0-0.09-0.07-0.16-0.16-0.16c-1.87,0-3.68,0.62-5.16,1.77C8.69,3.13,8.18,3.64,7.75,4.21
		C7.43,4.41,7.02,4.36,6.75,4.1c-0.44-0.44-1.16-0.44-1.6,0L3.55,5.68C3.52,5.71,3.5,5.75,3.5,5.79s0.02,0.09,0.05,0.12l0.93,0.92
		c0.48,0.47,1.21,0.59,1.81,0.3c0,0,0,0,0,0.01c-0.02,0.06,0,0.12,0.04,0.16L6.8,7.76L5.66,8C5.6,8.02,5.55,8.06,5.53,8.12
		c-0.02,0.06,0,0.12,0.04,0.16l0.58,0.58C6.02,8.77,5.88,8.72,5.73,8.68C5.69,8.67,5.64,8.67,5.59,8.66
		C5.54,8.65,5.48,8.65,5.42,8.65c-0.38,0-0.75,0.15-1.02,0.42c-0.28,0.27-0.44,0.65-0.44,1.04c0,0.09,0.07,0.16,0.16,0.16l0.12,0
		c-0.24,0.33-0.34,0.74-0.28,1.14c0.02,0.08,0.08,0.13,0.16,0.13h0.44c0.09,0,0.16-0.07,0.16-0.16c0-0.09-0.07-0.16-0.16-0.16h-0.3
		c0-0.22,0.04-0.63,0.44-0.97c0.05-0.04,0.07-0.11,0.05-0.18C4.73,10,4.67,9.96,4.6,9.96L4.3,9.95C4.33,9.7,4.45,9.48,4.63,9.3
		c0.21-0.21,0.49-0.33,0.78-0.33l0.01,0c0.03,0,0.05,0,0.08,0C5.29,9.09,5.16,9.3,5.13,9.53l-0.09,0.75
		c-0.01,0.05,0.01,0.09,0.04,0.13c0.03,0.03,0.08,0.05,0.12,0.05c0.01,0,0.01,0,0.02,0l0.75-0.09c0.23-0.03,0.44-0.16,0.56-0.36
		c0,0.03,0,0.06,0,0.09c0,0.3-0.12,0.58-0.33,0.79c-0.06,0.06-0.06,0.17,0,0.23c0.06,0.06,0.17,0.06,0.23,0
		c0.32-0.32,0.47-0.76,0.41-1.2C6.84,9.87,6.83,9.83,6.82,9.78C6.79,9.63,6.73,9.49,6.65,9.35l0.56,0.56
		c0.04,0.04,0.1,0.06,0.16,0.04s0.1-0.06,0.11-0.12l0.28-1.12l0.42,0.42c0.04,0.04,0.1,0.06,0.16,0.04c0.01,0,0.02-0.01,0.03-0.01
		c-0.3,0.61-0.19,1.35,0.29,1.83l0.92,0.94C9.61,11.98,9.65,12,9.7,12l0,0c0.04,0,0.09-0.02,0.12-0.05l1.58-1.61
		c0.44-0.44,0.44-1.16,0-1.6C11.13,8.48,11.09,8.07,11.28,7.75z"/>
	<path class="st0" d="M5.67,11.19c-0.09,0.02-0.17,0.03-0.26,0.03H5.15c-0.09,0-0.16,0.07-0.16,0.16c0,0.09,0.07,0.16,0.16,0.16
		h0.26c0.11,0,0.23-0.01,0.34-0.04c0.09-0.02,0.14-0.11,0.12-0.2C5.85,11.22,5.76,11.17,5.67,11.19L5.67,11.19z"/>
	<path class="st0" d="M12.2,7.83c0.04,0,0.07-0.01,0.1-0.04c0.12-0.1,0.23-0.2,0.34-0.3c0.07-0.06,0.07-0.16,0.01-0.23
		C12.6,7.2,12.49,7.2,12.43,7.26c-0.11,0.1-0.22,0.19-0.33,0.29c-0.05,0.04-0.07,0.12-0.05,0.18C12.07,7.79,12.14,7.83,12.2,7.83
		L12.2,7.83z"/>
	<path class="st0" d="M14.88,3.56c-0.09-0.03-0.18,0.02-0.2,0.11c-0.14,0.45-0.31,0.89-0.53,1.31c-0.08,0.15-0.16,0.31-0.25,0.45
		c-0.11,0.18-0.22,0.36-0.35,0.54c-0.19,0.27-0.4,0.54-0.63,0.79c-0.06,0.07-0.06,0.17,0.01,0.23s0.17,0.06,0.23-0.01
		c0.24-0.26,0.45-0.53,0.66-0.82c0.13-0.18,0.25-0.37,0.36-0.56c0.09-0.15,0.18-0.31,0.26-0.47c0.22-0.44,0.41-0.89,0.55-1.36
		C15.02,3.67,14.97,3.58,14.88,3.56z"/>
	<path class="st0" d="M2.07,7.55c0.04,0,0.08-0.02,0.11-0.05l0.12-0.12c0.06-0.06,0.06-0.17,0-0.23c-0.06-0.06-0.17-0.06-0.23,0
		L1.95,7.28C1.91,7.32,1.89,7.39,1.92,7.45C1.94,7.51,2,7.55,2.07,7.55L2.07,7.55z"/>
	<path class="st0" d="M2.66,7.03l0.56-0.56c0.06-0.06,0.06-0.17,0-0.23c-0.06-0.06-0.17-0.06-0.23,0L2.43,6.8
		c-0.06,0.06-0.06,0.17,0,0.23C2.49,7.09,2.6,7.09,2.66,7.03L2.66,7.03z"/>
	<path class="st0" d="M2.2,8.11c0.06,0.06,0.17,0.06,0.23,0l0.65-0.65c0.06-0.06,0.06-0.17,0-0.23c-0.06-0.06-0.17-0.06-0.23,0
		L2.2,7.88C2.13,7.95,2.13,8.05,2.2,8.11z"/>
	<path class="st0" d="M3.28,7.19c0.04,0,0.08-0.02,0.11-0.05L3.64,6.9c0.06-0.06,0.06-0.17,0-0.23c-0.06-0.06-0.17-0.06-0.23,0
		L3.17,6.91C3.12,6.96,3.11,7.03,3.13,7.09C3.16,7.15,3.22,7.19,3.28,7.19L3.28,7.19z"/>
	<path class="st0" d="M2.62,8.31L1.9,9.03C1.84,9.1,1.84,9.2,1.9,9.26c0.06,0.06,0.17,0.06,0.23,0l0.72-0.72
		c0.06-0.06,0.06-0.17,0-0.23C2.79,8.25,2.68,8.25,2.62,8.31L2.62,8.31z"/>
	<path class="st0" d="M4.07,7.09C4,7.03,3.9,7.03,3.84,7.09L2.99,7.94C2.93,8,2.93,8.1,2.99,8.17c0.06,0.06,0.17,0.06,0.23,0
		l0.84-0.84C4.13,7.26,4.13,7.16,4.07,7.09L4.07,7.09z"/>
	<path class="st0" d="M7.26,12.33l-0.12,0.12c-0.06,0.06-0.06,0.17,0,0.23c0.06,0.06,0.17,0.06,0.23,0l0.12-0.12
		c0.06-0.06,0.06-0.17,0-0.23C7.43,12.27,7.32,12.27,7.26,12.33L7.26,12.33z"/>
	<path class="st0" d="M8.17,11.42l-0.56,0.56c-0.06,0.06-0.06,0.17,0,0.23c0.06,0.06,0.17,0.06,0.23,0l0.56-0.56
		c0.06-0.06,0.06-0.17,0-0.23C8.33,11.36,8.23,11.36,8.17,11.42L8.17,11.42z"/>
	<path class="st0" d="M7.38,13.29c0.06,0.06,0.17,0.06,0.23,0l0.65-0.65c0.06-0.06,0.06-0.17,0-0.23c-0.06-0.06-0.17-0.06-0.23,0
		l-0.65,0.65C7.32,13.13,7.32,13.23,7.38,13.29z"/>
	<path class="st0" d="M8.35,12.32c0.06,0.06,0.17,0.06,0.23,0l0.24-0.24c0.06-0.06,0.06-0.17,0-0.23c-0.06-0.06-0.17-0.06-0.23,0
		l-0.24,0.24C8.29,12.16,8.29,12.26,8.35,12.32z"/>
	<path class="st0" d="M7.8,13.49l-0.72,0.72c-0.06,0.06-0.06,0.17,0,0.23c0.06,0.06,0.17,0.06,0.23,0l0.72-0.72
		c0.06-0.06,0.06-0.17,0-0.23C7.97,13.43,7.87,13.43,7.8,13.49L7.8,13.49z"/>
	<path class="st0" d="M9.02,12.28l-0.84,0.84c-0.06,0.06-0.06,0.17,0,0.23c0.06,0.06,0.17,0.06,0.23,0l0.84-0.84
		c0.06-0.06,0.06-0.17,0-0.23C9.18,12.21,9.08,12.21,9.02,12.28L9.02,12.28z"/>
	<path class="st0" d="M12.89,10.78c-0.09-0.12-0.19-0.23-0.32-0.32c0.12-0.09,0.23-0.19,0.32-0.32c0.09,0.12,0.19,0.23,0.32,0.32
		C13.08,10.55,12.97,10.65,12.89,10.78z M13.62,10.31c-0.27-0.09-0.48-0.3-0.57-0.57c-0.02-0.07-0.08-0.11-0.15-0.11
		c-0.07,0-0.13,0.04-0.15,0.11c-0.09,0.27-0.3,0.48-0.57,0.57c-0.07,0.02-0.11,0.08-0.11,0.15c0,0.07,0.04,0.13,0.11,0.15
		c0.27,0.09,0.48,0.3,0.57,0.57c0.02,0.07,0.08,0.11,0.15,0.11c0.07,0,0.13-0.04,0.15-0.11c0.09-0.27,0.3-0.48,0.57-0.57
		c0.07-0.02,0.11-0.08,0.11-0.15C13.73,10.39,13.68,10.33,13.62,10.31z"/>
	<path class="st0" d="M2.83,3.62c0.09,0.12,0.19,0.23,0.32,0.32C3.02,4.03,2.91,4.13,2.83,4.26C2.74,4.13,2.63,4.03,2.51,3.94
		C2.63,3.85,2.74,3.75,2.83,3.62z M2.1,4.09c0.27,0.09,0.48,0.3,0.57,0.57c0.02,0.07,0.08,0.11,0.15,0.11
		c0.07,0,0.13-0.04,0.15-0.11c0.09-0.27,0.3-0.48,0.57-0.57c0.07-0.02,0.11-0.08,0.11-0.15S3.62,3.81,3.55,3.79
		C3.28,3.7,3.07,3.48,2.98,3.21C2.96,3.15,2.9,3.1,2.83,3.1c-0.07,0-0.13,0.04-0.15,0.11C2.58,3.48,2.37,3.7,2.1,3.79
		C2.03,3.81,1.99,3.87,1.99,3.94S2.03,4.07,2.1,4.09z"/>
	<path class="st0" d="M4.94,1.94c0.02,0,0.04,0,0.06,0.01c0.02,0,0.04,0.01,0.06,0.02C5.07,1.97,5.09,1.98,5.1,1.99
		C5.12,2,5.13,2.01,5.15,2.03c0.01,0.01,0.03,0.03,0.04,0.05C5.19,2.09,5.2,2.1,5.21,2.12c0.01,0.02,0.01,0.04,0.02,0.06
		c0,0.02,0.01,0.04,0.01,0.06c0,0.02,0,0.04-0.01,0.06c0,0.02-0.01,0.04-0.02,0.06C5.2,2.37,5.19,2.39,5.18,2.4
		C5.17,2.42,5.16,2.43,5.15,2.45C5.13,2.46,5.12,2.47,5.1,2.48C5.09,2.49,5.07,2.5,5.05,2.51C5.03,2.52,5.01,2.52,4.99,2.53
		c-0.02,0-0.04,0.01-0.06,0.01c-0.02,0-0.04,0-0.06-0.01c-0.02,0-0.04-0.01-0.06-0.02C4.81,2.5,4.79,2.49,4.77,2.48
		C4.76,2.47,4.74,2.46,4.73,2.45C4.71,2.43,4.7,2.42,4.69,2.4C4.68,2.39,4.67,2.37,4.66,2.35C4.65,2.33,4.65,2.31,4.65,2.29
		c0-0.02-0.01-0.04-0.01-0.06c0-0.02,0-0.04,0.01-0.06c0-0.02,0.01-0.04,0.02-0.06C4.67,2.1,4.68,2.09,4.69,2.07
		C4.7,2.05,4.71,2.04,4.73,2.03C4.74,2.01,4.76,2,4.77,1.99c0.02-0.01,0.03-0.02,0.05-0.03c0.02-0.01,0.04-0.01,0.06-0.02
		C4.9,1.94,4.92,1.94,4.94,1.94z"/>
	<path class="st0" d="M12.38,12.52c0.02,0,0.04,0,0.06,0.01c0.02,0,0.04,0.01,0.06,0.02c0.02,0.01,0.04,0.02,0.05,0.03
		c0.02,0.01,0.03,0.02,0.05,0.04c0.01,0.01,0.03,0.03,0.04,0.05c0.01,0.02,0.02,0.03,0.03,0.05c0.01,0.02,0.01,0.04,0.02,0.06
		c0,0.02,0.01,0.04,0.01,0.06s0,0.04-0.01,0.06c0,0.02-0.01,0.04-0.02,0.06c-0.01,0.02-0.02,0.04-0.03,0.05
		c-0.01,0.02-0.02,0.03-0.04,0.05c-0.01,0.01-0.03,0.03-0.05,0.04c-0.02,0.01-0.03,0.02-0.05,0.03c-0.02,0.01-0.04,0.01-0.06,0.02
		c-0.02,0-0.04,0.01-0.06,0.01c-0.02,0-0.04,0-0.06-0.01c-0.02,0-0.04-0.01-0.06-0.02c-0.02-0.01-0.04-0.02-0.05-0.03
		c-0.02-0.01-0.03-0.02-0.05-0.04c-0.01-0.01-0.03-0.03-0.04-0.05c-0.01-0.02-0.02-0.03-0.03-0.05c-0.01-0.02-0.01-0.04-0.02-0.06
		c0-0.02-0.01-0.04-0.01-0.06s0-0.04,0.01-0.06c0-0.02,0.01-0.04,0.02-0.06c0.01-0.02,0.02-0.04,0.03-0.05
		c0.01-0.02,0.02-0.03,0.04-0.05c0.01-0.01,0.03-0.03,0.05-0.04c0.02-0.01,0.03-0.02,0.05-0.03c0.02-0.01,0.04-0.01,0.06-0.02
		C12.34,12.52,12.36,12.52,12.38,12.52z"/>
	<path class="st0" d="M11.22,5.49c-0.34,0.34-0.88,0.34-1.22,0c-0.34-0.34-0.34-0.88,0-1.22s0.88-0.34,1.22,0
		C11.56,4.61,11.56,5.16,11.22,5.49z M10.61,3.7c-0.54,0-1.01,0.36-1.15,0.88s0.09,1.07,0.55,1.33c0.46,0.27,1.05,0.19,1.43-0.19
		l0,0c0.34-0.34,0.44-0.85,0.26-1.29C11.52,3.99,11.09,3.7,10.61,3.7L10.61,3.7z"/>
</g>
</svg>
