<?xml version="1.0" encoding="utf-8"?>
<!-- Generator: Adobe Illustrator 24.1.3, SVG Export Plug-In . SVG Version: 6.00 Build 0)  -->
<svg version="1.1" id="Camada_1" xmlns="http://www.w3.org/2000/svg" xmlns:xlink="http://www.w3.org/1999/xlink" x="0px" y="0px"
	 viewBox="0 0 1080 1080" style="enable-background:new 0 0 1080 1080;" xml:space="preserve">
<style type="text/css">
	.st0{fill:#ECF4E9;}
</style>
<g>
	<path class="st0" d="M913.33,303.06L913.33,303.06C913.33,303.06,913.33,303.05,913.33,303.06
		C913.33,303.06,913.33,303.06,913.33,303.06z"/>
	<path class="st0" d="M889.61,364.62c-13.11,3.63-23.44,3.06-23.44,3.06l0.43-2.49c12.2-9.77,42.99-39.75,47.06-53.77
		c1.77-6.06-0.32-8.15-0.33-8.35L874,319.75l-32.9,14.85l0,0c-22.71-24.04-57.09-39.37-95.53-39.37
		c-68.4,0-123.86,48.46-123.86,108.25c0,10.93,1.63,30.88,5.06,40.84c0,3.13,0.12-3.14,0,0c-44.05-1.21-100.5-19.28-150.78-44.75
		c-99.17-50.25-105.38-85.03-105.38-85.03c-15.58,16.54-23.61,71.31-7.83,114.25c10.11,27.49,44.86,52.16,44.86,52.16l0,0
		c0,0-15.53,0.29-31.81-5.21c-16.28-5.5-22.43-10.96-22.43-10.96c-9.68,23.61,9.74,65.75,43.3,95.98
		c19.56,17.63,55.28,28.69,55.28,28.69l-55.81,1.57c-3.14,54.26,113.77,86.48,113.77,86.48l0,0c-34.27,26.34-74.02,42.4-116.64,42.4
		c-22.09,0-43.43-3.3-63.69-9.35c56.3,46.39,128.66,78.41,207.34,74.28c208.74-10.96,326.57-190.4,332.18-366.62l0.27,0.36
		c0,0,9.78-4.88,30.69-25.79C920.99,371.87,934,347.4,934,347.4S902.74,361,889.61,364.62z"/>
	<path class="st0" d="M913.33,303.06C913.48,306.4,913.33,303.39,913.33,303.06L913.33,303.06z"/>
</g>
</svg>
