<?xml version="1.0" encoding="utf-8"?>
<!-- Generator: Adobe Illustrator 24.1.3, SVG Export Plug-In . SVG Version: 6.00 Build 0)  -->
<svg version="1.1" id="Camada_1" xmlns="http://www.w3.org/2000/svg" xmlns:xlink="http://www.w3.org/1999/xlink" x="0px" y="0px"
	 viewBox="0 0 1080 1080" style="enable-background:new 0 0 1080 1080;" xml:space="preserve">
<style type="text/css">
	.st0{fill:#ECF4E9;}
	.st1{fill:#0F3547;}
</style>
<g>
	<circle class="st0" cx="617" cy="541" r="378"/>
	<g>
		<g>
			<path class="st1" d="M618.1,804.34c-46.23,0-91.58-12.24-131.73-35.46l-102.9,35.46l21.14-108.98
				c-33.15-45.43-50.63-98.88-50.63-155.15c0-145.64,118.48-264.12,264.12-264.12c145.65,0,264.13,118.48,264.13,264.12
				C882.22,685.85,763.74,804.34,618.1,804.34z M491.11,725.68l7.96,4.99c35.88,22.49,77.04,34.38,119.03,34.38
				c123.97,0,224.83-100.86,224.83-224.83c0-123.96-100.85-224.82-224.83-224.82c-123.97,0-224.82,100.85-224.82,224.82
				c0,50.44,16.52,98.23,47.76,138.2l5.51,7.06l-11.56,59.54L491.11,725.68z"/>
		</g>
		<path class="st1" d="M484.76,438.74c0,0,15.49-27.09,28.12-28.64c12.64-1.55,28.9-1.55,33.29,6.7
			c4.38,8.26,23.99,56.25,23.99,56.25s3.35,8.26-1.81,16.25c-5.15,8-16.76,19.61-16.76,19.61s-6.45,8.26,0,17.03
			c6.45,8.77,16.45,24.9,37.16,45.58c20.66,20.69,60.36,35.44,60.36,35.44s5.68,0.77,9.29-2.85c3.61-3.61,23.22-28.12,23.22-28.12
			s6.31-8.12,16.77-3.35c10.44,4.77,55.72,27.34,55.72,27.34s5.29,1.93,5.29,9.93c0,8-3.24,27.57-9.85,34.18
			c-6.61,6.62-25.97,27.01-55.03,27.01c-29.08,0-98.31-23.66-135.2-60.54c-36.89-36.91-69.66-74.32-77.4-108.37
			C474.19,468.15,475.22,452.76,484.76,438.74z"/>
	</g>
</g>
</svg>
