<?xml version="1.0" encoding="utf-8"?>
<!-- Generator: Adobe Illustrator 24.1.3, SVG Export Plug-In . SVG Version: 6.00 Build 0)  -->
<svg version="1.1" id="Camada_1" xmlns="http://www.w3.org/2000/svg" xmlns:xlink="http://www.w3.org/1999/xlink" x="0px" y="0px"
	 viewBox="0 0 1080 1080" style="enable-background:new 0 0 1080 1080;" xml:space="preserve">
<style type="text/css">
	.st0{fill:#ECF4E9;}
	.st1{fill:#0F3547;}
</style>
<path class="st0" d="M981.97,452.09c-0.33-9.48-0.82-18.96-1.54-28.43c-3.08-40.14-7.55-86.11-34.07-118.21
	c-22.7-27.48-57.85-33.69-91.22-37.47c-42.26-4.78-84.72-7.67-127.21-9.29c-86.07-3.29-172.22-1.38-258.29,0.53
	c-44.22,0.98-88.47,1.97-132.56,5.48c-54.14,4.31-109.83,12.25-135.05,66.35c-22.64,48.57-19.83,110.23-20.11,162.48
	c-0.26,46.85-0.41,93.72,1.47,140.53c2.44,60.76,6.04,139.9,71.63,166.55c35.01,14.23,77.29,17.4,114.68,19.83
	c39.64,2.58,79.38,2.27,119.07,2.86c83.25,1.24,166.49-1.62,249.71-3.27c57.81-1.15,117.14-1.8,172.46-20.67
	c47.75-16.29,60.21-68.04,66.66-112.93c6.42-44.6,4.78-89.85,4.71-134.76C982.23,518.49,983.11,485.26,981.97,452.09z"/>
<path class="st1" d="M708.36,539.36C638.44,498.3,570.05,458.13,501,417.57c0,81.84,0,162.3,0,243.64
	C570.28,620.5,638.69,580.3,708.36,539.36z"/>
</svg>
